<svg width="62" height="55" viewBox="0 0 62 55" fill="none" xmlns="http://www.w3.org/2000/svg">
<path d="M4.51978 4C4.51978 1.79086 6.31064 0 8.51978 0H52.5198C54.7289 0 56.5198 1.79086 56.5198 4V36C56.5198 38.2091 54.7289 40 52.5198 40H8.51978C6.31064 40 4.51978 38.2091 4.51978 36V4Z" fill="url(#paint0_linear_1476_253803)"/>
<path d="M13.5474 12.1823C13.46 11.9097 13.5826 11.737 13.8747 11.7074L15.54 11.5409C15.793 11.5162 15.9873 11.6186 16.0395 11.8394L17.4544 17.2696C17.4988 17.3991 17.6109 17.393 17.6213 17.2523L17.9421 11.6432C17.9455 11.5392 17.9914 11.4404 18.0702 11.3677C18.1491 11.295 18.2546 11.254 18.3647 11.2534L19.567 11.1301C19.675 11.1085 19.7875 11.1274 19.881 11.1829C19.9744 11.2384 20.0414 11.326 20.0678 11.4274L21.6222 16.8514C21.6653 16.9822 21.7761 16.9748 21.7905 16.8354L21.9691 11.2399C21.9691 11.0116 22.14 10.8698 22.393 10.85L24.0569 10.6835C24.3504 10.6539 24.5069 10.797 24.4821 11.0807L23.7114 19.7318C23.7087 19.8362 23.663 19.9355 23.5841 20.0085C23.5052 20.0816 23.3992 20.1226 23.2889 20.1229L21.3171 20.3239C21.2092 20.3427 21.0979 20.3224 21.0051 20.2671C20.9123 20.2118 20.845 20.1255 20.8163 20.0254L19.6857 16.8465C19.644 16.7231 19.5318 16.7231 19.5188 16.8637L19.1145 20.1944C19.1086 20.2982 19.0616 20.3961 18.9828 20.4686C18.904 20.5411 18.7993 20.5828 18.6894 20.5855L16.7189 20.7828C16.611 20.8043 16.4984 20.7852 16.4051 20.7295C16.3119 20.6737 16.2453 20.5858 16.2195 20.4843L13.5474 12.1823Z" fill="white"/>
<path d="M43.9141 17.611C44.0014 17.8836 43.8802 18.0576 43.588 18.0859L41.9214 18.2525C41.6697 18.2784 41.4754 18.1772 41.4207 17.9539L40.0071 12.5225C39.964 12.393 39.8519 12.3991 39.8401 12.5398L39.5193 18.1488C39.5166 18.2534 39.4708 18.3529 39.3916 18.426C39.3124 18.499 39.2061 18.5399 39.0955 18.5399L37.8945 18.6632C37.7865 18.6844 37.6741 18.6652 37.5809 18.6095C37.4878 18.5538 37.4211 18.466 37.395 18.3647L35.8405 12.9407C35.7975 12.8173 35.6867 12.8173 35.6723 12.9567L35.4937 18.5522C35.4937 18.7804 35.3215 18.9223 35.0698 18.9433L33.4058 19.1086C33.1124 19.1394 32.9559 18.9963 32.9807 18.7114L33.7501 10.059C33.7545 9.95516 33.8009 9.85686 33.8798 9.78451C33.9587 9.71216 34.064 9.67132 34.1739 9.67045L36.1457 9.46938C36.2531 9.44965 36.3644 9.46925 36.4572 9.52421C36.5499 9.57917 36.6171 9.66539 36.6452 9.76543L37.7784 12.9419C37.8227 13.0653 37.9323 13.0653 37.9466 12.9259L38.3509 9.5952C38.3561 9.49184 38.4027 9.39423 38.4811 9.3221C38.5596 9.24996 38.664 9.20869 38.7734 9.20662L40.7452 9.00925C40.8526 8.98696 40.965 9.00532 41.0584 9.06042C41.1517 9.11551 41.2186 9.20297 41.2446 9.30408L43.9141 17.611Z" fill="white"/>
<path d="M32.1161 16.2287C32.0339 17.1206 31.6179 19.5298 28.3069 19.8616C24.9958 20.1934 25.0154 17.8237 25.0975 16.9331L25.4066 13.558C25.4875 12.6674 25.9022 10.2594 29.2158 9.92635C32.5295 9.59329 32.5073 11.9642 32.4264 12.8561L32.1161 16.2287ZM29.9552 13.8121C30.0491 12.771 30.0387 12.1443 29.0032 12.248C27.9678 12.3516 27.8413 12.9881 27.7448 14.0342L27.5675 15.9771C27.4723 17.017 27.484 17.6436 28.5181 17.54C29.5523 17.4364 29.6814 16.7999 29.7766 15.7563L29.9552 13.8121Z" fill="white"/>
<path d="M47.208 19.884C47.1815 19.7966 47.1369 19.715 47.0769 19.644C47.017 19.573 46.9427 19.5138 46.8585 19.47C46.7742 19.4262 46.6817 19.3986 46.5861 19.3888C46.4906 19.379 46.3939 19.3871 46.3017 19.4128L43.2371 20.2553C43.2417 20.177 43.232 20.0986 43.2084 20.0234C43.1817 19.9361 43.1371 19.8546 43.0771 19.7837C43.017 19.7127 42.9428 19.6537 42.8586 19.6099C42.7744 19.5661 42.6819 19.5385 42.5864 19.5286C42.4909 19.5187 42.3943 19.5267 42.3021 19.5522L38.5946 20.5711C38.5407 20.5749 38.4874 20.584 38.4355 20.5983L28.561 23.3121C28.4654 23.3342 28.3754 23.3743 28.2965 23.4301C28.2176 23.4858 28.1514 23.5561 28.1019 23.6366C28.0524 23.7171 28.0205 23.8063 28.0083 23.8987C27.9961 23.9912 28.0038 24.085 28.0309 24.1746C28.0579 24.2642 28.1038 24.3477 28.1658 24.4201C28.2278 24.4925 28.3046 24.5523 28.3916 24.5959C28.4786 24.6395 28.5741 24.6661 28.6722 24.674C28.7703 24.6819 28.8691 24.671 28.9627 24.6419L29.0305 24.6234C29.1289 24.5978 29.2336 24.6051 29.3269 24.6442C29.4202 24.6832 29.4964 24.7517 29.5425 24.8378C29.5885 24.9239 29.6017 25.0225 29.5797 25.1167C29.5577 25.211 29.5019 25.2952 29.4217 25.3549L26.9518 26.0346C26.8572 26.058 26.7684 26.099 26.6909 26.1553C26.6133 26.2116 26.5484 26.2821 26.5001 26.3625C26.4518 26.443 26.4211 26.5318 26.4097 26.6236C26.3983 26.7155 26.4064 26.8086 26.4337 26.8975C26.461 26.9863 26.5069 27.069 26.5686 27.1408C26.6302 27.2126 26.7065 27.272 26.7929 27.3154C26.8792 27.3588 26.9739 27.3854 27.0713 27.3936C27.1687 27.4018 27.2669 27.3915 27.36 27.3632L29.6826 26.7254H29.706C29.5427 26.783 29.4047 26.891 29.3143 27.0319C29.2239 27.1728 29.1863 27.3385 29.2078 27.5021C29.2292 27.6657 29.3083 27.8177 29.4323 27.9335C29.5563 28.0493 29.718 28.1222 29.8912 28.1404L29.2392 28.3205C29.1445 28.3438 29.0558 28.3848 28.9782 28.4411C28.9006 28.4974 28.8358 28.5679 28.7875 28.6484C28.7392 28.7288 28.7084 28.8176 28.697 28.9095C28.6856 29.0013 28.6938 29.0944 28.7211 29.1833C28.7484 29.2721 28.7942 29.3549 28.8559 29.4267C28.9176 29.4984 28.9939 29.5578 29.0802 29.6012C29.1666 29.6446 29.2612 29.6712 29.3587 29.6795C29.4561 29.6877 29.5542 29.6773 29.6473 29.649L32.6467 28.8262C32.7332 28.8027 32.826 28.8126 32.9047 28.8537C32.9835 28.8949 33.0417 28.964 33.0666 29.0458C33.0915 29.1276 33.0811 29.2154 33.0375 29.2899C32.994 29.3644 32.921 29.4195 32.8345 29.443L31.6008 29.7822C31.5414 29.7984 31.4859 29.8256 31.4376 29.862C31.3893 29.8985 31.349 29.9436 31.3191 29.9949C31.2892 30.0461 31.2702 30.1023 31.2633 30.1605C31.2564 30.2186 31.2616 30.2774 31.2787 30.3337C31.2959 30.3899 31.3245 30.4423 31.3631 30.4881C31.4016 30.5338 31.4494 30.5719 31.5035 30.6002C31.5576 30.6285 31.6171 30.6464 31.6786 30.653C31.74 30.6595 31.8022 30.6546 31.8617 30.6384L35.607 29.6095C35.651 29.6088 35.6948 29.603 35.7374 29.5923L42.096 27.8443C42.1555 27.828 42.211 27.8008 42.2593 27.7641C42.3076 27.7275 42.3478 27.6823 42.3776 27.6309C42.4074 27.5796 42.4262 27.5232 42.4329 27.465C42.4397 27.4068 42.4342 27.3479 42.4168 27.2917C42.3907 27.2065 42.3385 27.1305 42.2669 27.0733L45.7266 26.1222C45.8779 26.0799 46.0108 25.9924 46.1053 25.8728C46.1998 25.7532 46.2508 25.6079 46.2508 25.4586C46.2508 25.3092 46.1998 25.1639 46.1053 25.0443C46.0108 24.9247 45.8779 24.8372 45.7266 24.7949L45.8948 24.748C46.0214 24.7274 46.142 24.6817 46.2487 24.614C46.3554 24.5462 46.4458 24.4579 46.5139 24.3549C46.582 24.2518 46.6264 24.1363 46.6441 24.0159C46.6618 23.8955 46.6524 23.7729 46.6166 23.6562C46.5807 23.5395 46.5192 23.4312 46.4361 23.3385C46.353 23.2458 46.2501 23.1707 46.1343 23.1182C46.0184 23.0657 45.8921 23.037 45.7636 23.0338C45.6351 23.0307 45.5074 23.0532 45.3888 23.0999V23.0999C45.3888 23.0827 45.3797 23.0642 45.3745 23.0457C45.3245 22.8839 45.2251 22.7398 45.0889 22.6312L46.0735 22.361C46.2585 22.309 46.4143 22.19 46.5069 22.0298C46.5996 21.8696 46.6215 21.6813 46.568 21.5058C46.5145 21.3304 46.3899 21.1821 46.2213 21.0932C46.0527 21.0043 45.8538 20.982 45.6679 21.0312L46.7111 20.745C46.8038 20.7197 46.8901 20.6773 46.9653 20.6202C47.0405 20.5631 47.103 20.4925 47.1492 20.4124C47.1954 20.3324 47.2244 20.2445 47.2344 20.1538C47.2445 20.0631 47.2355 19.9714 47.208 19.884V19.884Z" fill="#E50695"/>
<path d="M41.6776 22.0835C41.6316 22.0725 41.5841 22.0684 41.5367 22.0711C41.2238 22.0946 40.9121 22.1192 40.5991 22.1452C40.5271 22.1428 40.4567 22.1661 40.4019 22.2104C40.3471 22.2547 40.3119 22.3168 40.3031 22.3845L39.5676 25.1946C39.5559 25.2365 39.5454 25.2784 39.5337 25.3179C39.522 25.3574 39.5141 25.3722 39.4841 25.3685C39.4541 25.3648 39.4515 25.3401 39.4359 25.3241C39.4202 25.3081 39.4359 25.3241 39.4359 25.3142C39.262 24.5741 39.0881 23.8302 38.9143 23.0827C38.8673 22.8841 38.8217 22.6855 38.7747 22.4869C38.7711 22.4593 38.7616 22.4327 38.7468 22.4087C38.7321 22.3846 38.7124 22.3637 38.6889 22.347C38.6655 22.3303 38.6387 22.3182 38.6102 22.3115C38.5817 22.3048 38.552 22.3036 38.523 22.308H38.4813L37.5606 22.3808L37.4902 22.3894C37.4631 22.3918 37.4367 22.3994 37.4128 22.4118C37.3889 22.4242 37.368 22.4411 37.3512 22.4614C37.3345 22.4817 37.3223 22.5051 37.3155 22.5301C37.3087 22.555 37.3073 22.581 37.3116 22.6065C37.3133 22.6227 37.3164 22.6388 37.3207 22.6546C37.6441 24.0527 37.9679 25.4532 38.2922 26.8562C38.3339 27.0351 38.3744 27.2139 38.4161 27.3916C38.4198 27.4192 38.4292 27.4458 38.444 27.4699C38.4587 27.494 38.4783 27.515 38.5018 27.5318C38.5253 27.5486 38.552 27.5608 38.5805 27.5676C38.609 27.5745 38.6387 27.5758 38.6678 27.5717H38.7213L39.4424 27.5149C39.6902 27.4952 39.938 27.4767 40.1844 27.4557C40.2564 27.4578 40.3266 27.4344 40.3813 27.3902C40.4361 27.3459 40.4714 27.284 40.4804 27.2164C40.6439 26.593 40.8065 25.9697 40.9682 25.3463C41.229 24.3339 41.4928 23.3216 41.7597 22.3092C41.7682 22.2757 41.7721 22.2413 41.7715 22.2068C41.7726 22.1793 41.764 22.1522 41.747 22.1298C41.73 22.1075 41.7056 22.0912 41.6776 22.0835ZM36.7482 22.4535H36.6726L34.633 22.6151L32.5856 22.7767C32.5543 22.7767 32.5217 22.7829 32.4904 22.7878C32.4408 22.7949 32.395 22.8171 32.3601 22.8513C32.3252 22.8854 32.3031 22.9294 32.2974 22.9766C32.2954 22.9983 32.2954 23.0202 32.2974 23.042L32.2817 23.8549C32.2817 23.8746 32.2817 23.8956 32.2817 23.9153C32.2829 23.9384 32.2889 23.9609 32.2994 23.9817C32.3099 24.0025 32.3248 24.0211 32.343 24.0364C32.3612 24.0517 32.3825 24.0634 32.4056 24.0707C32.4286 24.0781 32.4531 24.0811 32.4773 24.0794C32.5043 24.0794 32.5317 24.0794 32.5595 24.0794L33.6328 23.9955C33.8388 23.9795 33.9079 24.0387 33.904 24.2299C33.8805 25.3895 33.8579 26.5486 33.8362 27.7074C33.8342 27.7324 33.8342 27.7576 33.8362 27.7826C33.8395 27.8277 33.8616 27.8697 33.8975 27.8995C33.9333 27.9293 33.9802 27.9445 34.0279 27.9417H34.1061L34.6499 27.8986C34.766 27.8887 34.8821 27.8825 34.9981 27.869C35.0315 27.8691 35.0645 27.8626 35.095 27.85C35.1256 27.8374 35.153 27.8189 35.1756 27.7957C35.1982 27.7724 35.2154 27.745 35.2262 27.7152C35.2369 27.6853 35.241 27.6537 35.2381 27.6222V27.5754C35.2615 26.424 35.2842 25.2727 35.3059 24.1213C35.3046 24.1025 35.3046 24.0835 35.3059 24.0646C35.307 24.0103 35.3293 23.9583 35.3686 23.9186C35.4078 23.879 35.4612 23.8545 35.5184 23.85C35.5432 23.85 35.568 23.85 35.5928 23.8426L36.6582 23.7574C36.6889 23.7563 36.7195 23.7525 36.7495 23.7463C36.7962 23.7399 36.8396 23.7196 36.8734 23.6883C36.9071 23.6571 36.9295 23.6165 36.9373 23.5724C36.9422 23.5484 36.9452 23.5241 36.9464 23.4996C36.9464 23.3146 36.9542 23.1295 36.9568 22.9433C36.9568 22.8471 36.9568 22.7496 36.9568 22.6522C36.9647 22.5128 36.8995 22.4486 36.7482 22.4511V22.4535Z" fill="white"/>
<path d="M0.279026 41.1758C0.124924 38.972 1.7865 37.0606 3.99026 36.9065L58.8563 33.0699C59.4072 33.0314 59.8851 33.4468 59.9236 33.9977L60.7607 45.9685C60.9148 48.1722 59.2532 50.0837 57.0494 50.2378L2.18342 54.0744C1.63248 54.1129 1.15463 53.6975 1.1161 53.1466L0.279026 41.1758Z" fill="#4D008C"/>
<path d="M4.271 48.9158L3.8106 42.3318L8.14003 42.0291L8.2063 42.9768L4.93429 43.2056L5.05218 44.8915L7.51616 44.7192L7.58034 45.6369L5.11636 45.8092L5.26215 47.8941L8.65386 47.657L8.72013 48.6047L4.271 48.9158ZM14.9483 48.1691L13.7412 48.2535L11.9735 45.9111L10.559 48.4761L9.34197 48.5612L11.3315 45.0438L9.02124 41.9675L10.2383 41.8824L11.8572 44.1049L13.1312 41.6801L14.3383 41.5957L12.5186 44.9608L14.9483 48.1691ZM17.5561 47.9868L17.162 42.3505L14.9474 42.5054L14.8811 41.5577L20.3777 41.1734L20.444 42.121L18.2194 42.2766L18.6136 47.9128L17.5561 47.9868ZM21.8258 47.6882L21.3654 41.1043L25.6948 40.8016L25.7611 41.7492L22.4891 41.978L22.607 43.6639L25.071 43.4916L25.1351 44.4094L22.6711 44.5817L22.8169 46.6666L26.2087 46.4294L26.2749 47.3771L21.8258 47.6882ZM31.4142 40.4016L32.4716 40.3277L32.9397 47.0213L32.5806 47.0464L28.2509 42.758L28.5627 47.2171L27.5053 47.2911L27.0372 40.5974L27.4063 40.5716L31.7246 44.8408L31.4142 40.4016ZM34.5973 46.7951L34.1369 40.2112L36.2019 40.0668C37.2726 39.992 38.1583 40.2341 38.859 40.7932C39.5598 41.3524 39.9443 42.1208 40.0127 43.0984C40.0801 44.0627 39.8029 44.8773 39.1811 45.5423C38.566 46.2069 37.7264 46.5763 36.6623 46.6507L34.5973 46.7951ZM35.5885 45.7735L36.586 45.7038C37.3442 45.6507 37.9343 45.3923 38.3563 44.9284C38.7845 44.4574 38.9741 43.8727 38.9253 43.1744C38.876 42.4695 38.6106 41.9233 38.1291 41.536C37.6471 41.142 37.0237 40.9717 36.2589 41.0252L35.2613 41.0949L35.5885 45.7735ZM41.5043 46.3122L41.0439 39.7282L42.1013 39.6543L42.5617 46.2382L41.5043 46.3122ZM44.2223 46.1221L43.7619 39.5382L45.8268 39.3938C46.8976 39.3189 47.7833 39.5611 48.484 40.1202C49.1847 40.6794 49.5692 41.4477 49.6376 42.4253C49.705 43.3897 49.4278 44.2043 48.806 44.8693C48.1909 45.5338 47.3513 45.9033 46.2872 45.9777L44.2223 46.1221ZM45.2134 45.1005L46.211 45.0307C46.9691 44.9777 47.5592 44.7192 47.9812 44.2553C48.4094 43.7843 48.5991 43.1997 48.5502 42.5014C48.5009 41.7964 48.2355 41.2503 47.754 40.8629C47.272 40.4689 46.6486 40.2987 45.8838 40.3521L44.8863 40.4219L45.2134 45.1005ZM50.5 42.3751C50.4211 41.4383 50.7007 40.6101 51.3387 39.8905C51.9768 39.1709 52.7684 38.7847 53.7137 38.732C54.6505 38.6531 55.4882 38.9254 56.2268 39.5487C56.9721 40.1716 57.3675 40.9525 57.4131 41.8916C57.4986 42.828 57.2157 43.6564 56.5644 44.3769C55.9197 45.097 55.1281 45.4831 54.1894 45.5354C53.246 45.6147 52.405 45.3427 51.6664 44.7194C50.9344 44.0956 50.5456 43.3142 50.5 42.3751ZM56.3251 41.9577C56.2767 41.2661 56.0104 40.7066 55.5261 40.2794C55.0413 39.8455 54.463 39.652 53.7913 39.699C53.113 39.7464 52.5638 40.0154 52.1436 40.5059C51.7301 40.9959 51.5478 41.5901 51.5966 42.2884C51.6459 42.9933 51.9096 43.563 52.3878 43.9973C52.8654 44.4251 53.4468 44.615 54.1318 44.5671C54.8035 44.5201 55.3491 44.248 55.7688 43.7509C56.1885 43.2537 56.3739 42.656 56.3251 41.9577Z" fill="white"/>
<defs>
<linearGradient id="paint0_linear_1476_253803" x1="30.5198" y1="0" x2="30.5198" y2="40" gradientUnits="userSpaceOnUse">
<stop stop-color="#451287"/>
<stop offset="1" stop-color="#280052"/>
</linearGradient>
</defs>
</svg>
